<?xml version="1.0" standalone="no"?>
<!DOCTYPE svg PUBLIC "-//W3C//DTD SVG 20010904//EN"
 "http://www.w3.org/TR/2001/REC-SVG-20010904/DTD/svg10.dtd">
<svg version="1.0" xmlns="http://www.w3.org/2000/svg"
 width="1000.000000pt" height="1000.000000pt" viewBox="0 0 1000.000000 1000.000000"
 preserveAspectRatio="xMidYMid meet">
<metadata>
Created by potrace 1.11, written by Peter Selinger 2001-2013
</metadata>
<g transform="translate(0.000000,1000.000000) scale(0.100000,-0.100000)"
fill="#000000" stroke="none">
<path d="M0 5000 l0 -5000 5000 0 5000 0 0 5000 0 5000 -5000 0 -5000 0 0
-5000z m9800 -10 l0 -4790 -4800 0 -4800 0 0 4790 0 4790 4800 0 4800 0 0
-4790z"/>
<path d="M2911 7678 c-5 -13 -104 -286 -221 -608 -117 -322 -227 -625 -245
-675 -79 -212 -1155 -3177 -1155 -3181 0 -2 273 -3 607 -2 l607 3 288 800
c314 873 485 1348 660 1837 62 175 115 318 118 318 3 0 29 -76 58 -168 29 -92
100 -311 157 -487 396 -1224 435 -1345 435 -1352 0 -2 -220 -3 -490 -3 l-490
0 0 -475 0 -475 1259 0 1260 0 -59 173 c-32 94 -83 244 -114 333 -30 88 -85
248 -121 354 -36 106 -90 263 -120 349 -29 86 -139 406 -243 711 -236 688
-370 1080 -597 1740 -97 283 -199 578 -225 655 -26 77 -51 148 -55 158 -7 16
-47 17 -656 17 l-649 0 -9 -22z"/>
<path d="M7360 6148 c0 -838 -3 -1628 -7 -1755 l-6 -233 -629 0 c-345 0 -628
-3 -628 -6 0 -3 45 -141 99 -307 55 -166 125 -380 156 -474 l56 -173 1085 0
1084 0 0 2235 0 2235 -605 0 -605 0 0 -1522z"/>
</g>
</svg>
